<?xml version="1.0" encoding="UTF-8"?>
<svg id="_0" data-name="0" xmlns="http://www.w3.org/2000/svg" viewBox="0 0 999.834 312.226">
  <defs>
    <style>
      .cls-1 {
        fill: #fff;
        fill-rule: evenodd;
      }
    </style>
  </defs>
  <path class="cls-1" d="M212.959,273.388h-45.634l30.423-136.902-66.93,136.902h-42.592l-12.169-136.902-24.338,136.902H0S45.634,75.64,45.634,75.64h66.93l9.127,130.818,63.888-130.818h73.014l-45.634,197.748ZM616.724,294.187l-1.733-20.799h39.097l15.726-73.014h29.908l21.296,73.014h54.761l-24.338-76.057.34-.118.339-.119.338-.12.337-.121.336-.122.335-.123.334-.124.333-.125.332-.126.332-.127.331-.129.33-.13.329-.131.328-.132.327-.133.326-.134.325-.135.324-.136.323-.137.322-.138.322-.14.321-.141.32-.142.319-.143.318-.144.317-.145.316-.146.315-.147.314-.148.313-.15.312-.151.311-.152.311-.153.31-.154.309-.155.308-.156.307-.157.306-.158.305-.16.304-.161.303-.162.302-.163.301-.164.3-.165.299-.166.299-.167.298-.168.297-.17.296-.171.295-.172.294-.173.293-.174.292-.175.291-.176.29-.177.289-.178.288-.18.287-.181.286-.182.285-.183.284-.184.283-.185.283-.186.282-.187.281-.189.28-.19.279-.191.278-.192.277-.193.276-.194.275-.195.274-.196.273-.198.272-.199.271-.2.27-.201.269-.202.268-.203.267-.204.266-.206.265-.207.264-.208.263-.209.262-.21.261-.211.26-.212.259-.214.258-.215.257-.216.256-.217.255-.218.254-.219.253-.22.252-.222.251-.223.25-.224.249-.225.248-.226.247-.227.245-.228.244-.23.243-.231.242-.232.241-.233.24-.234.239-.235.238-.236.237-.238.236-.239.235-.24.234-.241.233-.242.231-.243.23-.245.229-.246.228-.247.227-.248.226-.249.225-.25.224-.251.222-.253.221-.254.22-.255.219-.256.218-.257.217-.258.215-.26.214-.261.213-.262.212-.263.211-.264.209-.265.208-.266.207-.268.206-.269.205-.27.203-.271.202-.272.201-.273.2-.274.198-.276.197-.277.196-.278.195-.279.193-.28.192-.281.191-.282.19-.283.188-.285.187-.286.186-.287.184-.288.183-.289.182-.29.18-.291.179-.292.178-.293.176-.295.175-.296.174-.297.172-.298.171-.299.169-.3.168-.301.167-.302.165-.303.164-.304.163-.305.161-.306.16-.307.158-.308.157-.309.155-.31.154-.311.152-.312.151-.313.15-.314.148-.315.147-.316.145-.317.144-.318.142-.319.141-.32.139-.321.138-.322.136-.323.134-.324.133-.325.131-.326.13-.327.128-.328.127-.329.125-.329.124-.33.122-.331.12-.332.119-.333.117-.334.116-.334.114-.335.112-.336.111-.337.109-.338.107-.338.106-.339.104-.34.102-.34.101-.341.099-.342.097-.343.096-.343.094-.344.092-.344.091-.345.089-.346.087-.346.085-.347.084-.347.082-.348.08-.348.078-.349.077-.349.075-.35.073-.35.071-.351.07-.351.068-.352.066-.352.064-.352.062-.353.061-.353.059-.353.057-.354.055-.354.053-.354.051-.355.049-.355.048-.355.046-.355.044-.355.042-.356.04-.356.038-.356.036-.356.034-.356.033-.356.031-.356.029-.356.027-.356.025-.356.023-.356.021-.356.019-.356.017-.356.015-.356.013-.355.011-.355.009-.355.007-.355.005-.355.003-.354v-.354s.001-.354.001-.354l-.002-.354-.004-.353-.006-.353-.008-.353-.01-.352-.012-.352-.014-.351-.016-.351-.018-.351-.02-.35-.022-.35-.024-.349-.026-.349-.028-.348-.03-.347-.032-.347-.035-.346-.037-.346-.039-.345-.041-.344-.043-.344-.045-.343-.047-.342-.049-.341-.051-.341-.053-.34-.055-.339-.057-.338-.059-.338-.061-.337-.063-.336-.065-.335-.067-.334-.069-.333-.071-.332-.073-.331-.075-.33-.077-.329-.079-.328-.081-.328-.083-.326-.085-.325-.087-.324-.089-.323-.091-.322-.093-.321-.095-.32-.097-.319-.099-.318-.101-.317-.103-.316-.105-.315-.107-.313-.109-.312-.111-.311-.113-.31-.115-.309-.117-.307-.119-.306-.121-.305-.123-.304-.124-.303-.126-.301-.128-.3-.13-.299-.132-.297-.134-.296-.136-.295-.138-.294-.14-.292-.141-.291-.143-.29-.145-.288-.147-.287-.149-.286-.151-.284-.152-.283-.154-.282-.156-.28-.158-.279-.159-.278-.161-.276-.163-.275-.165-.274-.166-.272-.168-.271-.17-.269-.172-.268-.173-.267-.175-.265-.177-.264-.178-.263-.18-.261-.182-.26-.183-.258-.185-.257-.186-.256-.188-.254-.19-.253-.191-.251-.193-.25-.194-.249-.196-.247-.197-.246-.199-.244-.2-.243-.202-.242-.203-.24-.205-.239-.206-.237-.208-.236-.209-.235-.211-.233-.212-.232-.214-.23-.215-.229-.216-.228-.218-.226-.219-.225-.221-.224-.222-.222-.223-.221-.225-.219-.226-.218-.227-.217-.229-.215-.23-.214-.231-.213-.232-.211-.234-.21-.235-.208-.236-.207-.237-.206-.239-.204-.24-.203-.241-.202-.242-.2-.244-.199-.245-.198-.246-.196-.247-.195-.248-.194-.249-.192-.25-.191-.252-.19-.253-.188-.254-.187-.255-.186-.256-.184-.257-.183-.258-.182-.259-.18-.26-.179-.261-.178-.262-.176-.263-.175-.265-.174-.266-.173-.267-.171-.268-.17-.269-.169-.27-.167-.271-.166-.272-.165-.273-.163-.274-.162-.275-.161-.276-.16-.276-.158-.277-.157-.278-.156-.279-.155-.28-.153-.281-.152-.282-.151-.283-.149-.284-.148-.285-.147-.286-.146-.287-.144-.288-.143-.289-.142-.289-.141-.29-.139-.291-.138-.292-.137-.293-.136-.294-.134-.295-.133-.296-.132-.297-.131-.297-.129-.298-.128-.299-.127-.3-.126-.301-.125-.302-.123-.303-.122-.303-.121-.304-.12-.305-.118-.306-.117-.307-.116-.308-.115-.309-.113-.309-.112-.31-.111-.311-.11-.312-.109-.313-.107-.314-.106-.314-.105-.315-.104-.316-.103-.317-.101-.318-.1-.318-.099-.319-.098-.32-.096-.321-.095-.322-.094-.323-.093-.323-.092-.324-.09-.325-.089-.326-.088-.327-.087-.327-.086-.328-.084-.329-.083-.33-.082-.331-.081-.331-.08-.332-.078-.333-.077-.334-.076-.335-.075-.336-.074-.336-.072-.337-.071-.338-.07-.339-.069-.34-.068-.34-.066-.341-.065-.342-.064-.343-.063-.344-.062-.344-.06h-109.522l-5.102,23.688-48.815,5.394L571.956,0l-74.703,114.749-87.956,9.719,56.17-48.828h-73.014l-76.114,66.165,15.269-66.165h-54.761l-45.634,197.748h54.761l12.043-52.184,26.135-22.719,31.795,74.903h51.329l-22.271,38.838,134.966-79.147,96.754,61.108ZM742.64,121.847l.315.57.303.568.292.566.281.564.27.561.259.559.248.557.236.554.225.552.214.55.203.548.191.545.18.543.169.541.157.538.146.536.134.533.123.531.112.528.1.526.089.524.077.521.066.519.054.516.042.513.031.511.019.508.008.505-.004.503-.015.5-.027.497-.038.494-.05.492-.061.489-.072.486-.084.483-.095.48-.106.477-.117.473-.128.47-.139.467-.15.464-.161.46-.171.457-.182.453-.192.45-.202.446-.212.442-.222.439-.231.435-.241.431-.25.427-.259.423-.268.419-.276.415-.284.41-.292.406-.3.402-.307.397-.314.392-.321.388-.328.383-.334.378-.34.373-.345.368-.351.363-.356.358-.36.353-.365.347-.369.342-.373.336-.376.331-.38.325-.382.319-.385.313-.387.307-.389.301-.391.295-.392.289-.394.283-.394.277-.395.27-.395.264-.395.258-.395.251-.395.244-.394.238-.393.231-.392.224-.391.218-.389.211-.387.204-.386.197-.384.19-.381.183-.379.177-.377.17-.374.163-.371.156-.369.149-.366.142-.363.135-.36.128-.357.121-.353.114-.35.107-.347.1-.344.093-.34.087-.337.08-.333.073-.33.066-.326.059-.323.052-.319.046-.316.039-.312.032-.309.025-.305.018-.302.012-.298.005-.295-.002-.291-.008-.288-.015-.284-.022-.28-.028-.277-.035h-40.298l10.484-48.676h38.941c5.664,0,11.11,2.179,15.211,6.085l.326.573ZM477.636,230.796l18.254-45.634c.077-.124.139-.284.187-.444.154-.505.242-1.215.296-1.857.284-3.343.014-9.233-.192-13.813-.386-8.548-.812-18.326,1.14-27.122,1.103-4.972,2.748-8.66,4.651-11.523s4.266-5.187,7.11-7.113c3.482-2.358,7.449-3.959,11.173-5.067,5.799-1.726,13.316-2.917,20.806-2.169,5.225.522,9.587,1.902,13.116,3.754,2.931,1.538,5.606,3.569,7.72,6.104s3.192,5.009,3.792,6.942c.825,2.659,1.043,5.248,1.158,7.772.204,4.481.071,8.547,2.251,13.538,1.219,2.79,3.079,5.706,5.771,8.911,4.387,5.222,8.089,7.654,11.106,10.605,1.422,1.391,2.659,2.865,3.426,4.527.597,1.295.77,2.395.802,3.238.039,1.011-.119,2.008-.462,2.959-.356.987-.898,1.886-1.579,2.689-.824.97-1.835,1.779-2.926,2.433-1.52.912-3.222,1.54-4.83,1.876-2.125.444-3.944.348-5.615.023-1.987-.386-4.328-1.202-7.688-2.699-5.502-2.452-10.569-5.333-13.681-6.354-.849-.278-1.559-.421-2.123-.391-.232.012-.466.055-.679.152-.157.071-.295.169-.413.295-.118.128-.208.276-.275.437-.1.238-.15.503-.172.76-.046.524.013,1.125.119,1.722.308,1.737,1.094,3.857,1.766,5.484,2.096,5.075,6.429,13.445,14.217,24.754.271.252.49.565.667.889.356.651.594,1.436.755,2.158.424,1.905.533,4.34.426,6.625-.116,2.464-.514,5.392-1.436,7.676-.359.889-.835,1.773-1.477,2.488-.433.483-.936.881-1.521,1.161-.534.255-1.101.395-1.691.437-.604.044-1.214-.016-1.807-.14l-39.55-27.38-42.592,21.296ZM492.848,215.585l27.38-15.211,33.465,24.338c.144.105.32.184.487.244.407.145.937.234,1.438.247.403.01.767-.03,1.088-.121.266-.076.516-.192.734-.362.199-.155.359-.344.483-.564.142-.251.231-.531.283-.814.081-.444.075-.92.019-1.368-.064-.515-.223-1.219-.579-1.922-.314-.618-.641-.961-.912-1.423l-12.169-21.296c-1.37-2.39-2.219-5.014-2.674-7.736-.783-4.68-.336-9.194.133-12.18.916-5.825,3.006-12.442,6.377-17.95,1.443-2.358,3.144-4.549,5.15-6.452,1.859-1.762,3.931-3.229,6.225-4.359.147-3.764-.186-7.637-1.411-11.205-.864-2.517-2.145-4.803-3.91-6.791-1.665-1.875-3.662-3.372-5.885-4.526-2.756-1.431-5.813-2.311-8.892-2.731-4.091-.557-8.363-.323-12.39.661-3.834.937-7.488,2.564-10.671,4.905-2.856,2.101-5.225,4.693-7.064,7.735-1.882,3.116-3.1,6.524-3.84,10.092-.887,4.277-1.194,9.283-.816,15.386.395,6.374,1.529,13.777,3.162,19.939l-15.211,33.465ZM553.693,172.993c.418.582.938,1.209,1.584,1.883,2.237,2.338,5.372,4.64,8.451,6.476,2.819,1.681,6.996,3.781,10.737,4.427,1.369.236,2.742.292,4.041.064.573-.101,1.117-.253,1.628-.455.481-.19.943-.427,1.371-.713.626-.417,1.148-.913,1.518-1.451.274-.399.469-.827.566-1.275.092-.424.09-.839.017-1.245-.089-.496-.281-.954-.512-1.37-.403-.725-.975-1.409-1.601-2.053-1.396-1.436-3.144-2.761-5.139-4.495-2.007-1.744-5.535-4.993-7.611-7.24-2.23-2.413-3.113-3.987-3.829-5.357-.357-.683-.621-1.223-.899-1.619-.153-.218-.31-.394-.485-.524-.147-.11-.303-.184-.471-.226-.184-.046-.369-.05-.547-.033-.254.025-.556.102-.914.246-.66.266-1.423.72-2.242,1.296-1.819,1.28-4.347,3.486-5.815,5.603-.627.904-1.008,1.706-1.219,2.446-.197.693-.254,1.37-.175,2.049.08.688.302,1.411.694,2.183.22.432.499.892.852,1.383ZM857.92,230.796l21.296-109.522h33.465l.261.03.261.031.26.033.26.034.259.035.259.037.258.038.258.039.257.041.257.042.256.043.256.045.256.046.255.047.255.049.254.05.254.051.253.053.253.054.252.055.252.057.251.058.251.059.25.061.25.062.249.063.249.065.248.066.248.068.247.069.247.07.246.072.246.073.245.074.245.076.244.077.244.078.243.08.243.081.242.083.242.084.241.085.241.087.24.088.24.09.239.091.239.092.238.094.237.095.237.097.236.098.236.099.235.101.234.102.234.104.233.105.232.106.232.108.231.109.23.111.23.112.229.114.228.115.227.117.227.118.226.12.225.121.224.123.223.124.223.126.222.127.221.129.22.13.219.132.218.133.217.135.216.136.215.138.214.139.213.141.212.143.211.144.21.146.209.147.208.149.207.151.206.152.205.154.203.156.202.157.201.159.2.161.198.162.197.164.196.166.194.167.193.169.191.171.19.173.189.174.187.176.186.178.184.18.182.181.181.183.179.185.178.187.176.189.174.19.172.192.171.194.169.196.167.198.165.2.163.202.162.203.16.205.158.207.156.209.154.211.152.213.15.215.148.217.146.218.144.22.142.222.14.224.138.226.136.228.133.23.131.232.129.234.127.236.125.238.123.24.12.241.118.243.116.245.114.247.111.249.109.251.107.253.104.255.102.257.1.259.098.26.095.262.093.264.091.266.088.268.086.27.084.272.081.273.079.275.077.277.074.279.072.281.07.282.068.284.065.286.063.287.061.289.058.291.056.293.054.294.052.296.05.297.047.299.045.301.043.302.041.304.039.305.037.307.035.308.033.31.031.311.029.312.027.314.025.315.023.316.021.318.019.319.017.32.015.322.013.323.011.324.01.325.008.326.006.327.004.328.003.33v.331s0,.332,0,.332l-.002.333-.004.334-.005.334-.007.335-.008.336-.01.337-.011.338-.013.339-.014.339-.015.34-.017.341-.018.342-.019.342-.021.343-.022.343-.023.344-.024.345-.026.345-.027.346-.028.346-.029.347-.03.347-.031.347-.032.348-.033.348-.034.348-.035.349-.036.349-.037.349-.038.349-.039.35-.039.35-.04.35-.041.35-.042.35-.086.7-.089.7-.092.7-.095.7-.097.699-.1.699-.102.698-.105.697-.107.696-.109.694-.112.693-.114.692-.116.69-.119.688-.121.687-.061.343-.062.342-.063.342-.063.341-.064.341-.065.34-.065.339-.066.339-.067.338-.067.338-.068.337-.069.337-.07.336-.07.335-.071.335-.072.334-.073.334-.074.333-.074.332-.075.332-.076.331-.077.33-.078.33-.079.329-.08.328-.081.328-.082.327-.083.326-.084.326-.085.325-.086.324-.087.324-.088.323-.089.322-.09.322-.092.321-.093.32-.094.32-.095.319-.096.318-.098.317-.099.317-.1.316-.102.315-.103.314-.104.314-.106.313-.107.312-.109.312-.11.311-.111.31-.113.309-.114.309-.116.308-.117.307-.119.306-.121.306-.122.305-.124.304-.125.303-.127.302-.129.302-.13.301-.132.3-.134.299-.135.299-.137.298-.139.297-.141.296-.142.295-.144.295-.146.294-.148.293-.149.292-.151.291-.153.29-.155.29-.157.289-.158.288-.16.287-.162.286-.164.285-.166.284-.167.284-.169.283-.171.282-.173.281-.175.28-.177.279-.178.278-.18.277-.182.276-.184.275-.186.274-.187.273-.189.272-.191.271-.193.27-.194.269-.196.268-.198.267-.199.266-.201.265-.203.264-.204.263-.206.262-.208.261-.209.26-.211.258-.213.257-.214.256-.216.255-.217.254-.219.253-.22.251-.222.25-.223.249-.225.248-.226.246-.227.245-.229.244-.23.242-.231.241-.233.24-.234.239-.235.237-.237.236-.238.234-.239.233-.24.232-.241.23-.242.229-.244.227-.245.226-.246.224-.247.223-.248.221-.249.22-.25.218-.251.217-.252.215-.252.214-.253.212-.254.211-.255.209-.256.207-.257.206-.257.204-.258.202-.259.201-.259.199-.26.197-.261.196-.261.194-.262.192-.262.191-.263.189-.264.187-.264.185-.264.184-.265.182-.265.18-.266.178-.266.176-.267.175-.267.173-.267.171-.267.169-.268.167-.268.165-.268.163-.268.161-.269.16-.269.158-.269.156-.269.154-.269.152-.269.15-.27.148-.27.146-.27.144-.27.142-.27.14-.27.138-.27.136-.27.134-.27.132-.27.13-.27.128-.27.126-.27.124-.27.122-.27.12-.27.118-.269.116-.269.114-.269.112-.269.11-.269.108-.269.106-.269.104-.269.102-.268.1-.268.098-.268.095-.268.093-.268.091-.268.089-.267.087-.267.085-.267.083-.267.081-.267.079-.266.077-.266.075-.266.073-.266.071-.265.068-.265.066-.265.064-.265.062-.264.06-.264.058-.264.056-.264.054-.263.052-.263.05-.263.048-.263.046-.262.043-.262.041-.262.039-.262.037-.261.035-.261.033-.261.031-.261.029-.26.027-.26.025-.26.023-.259.02-.259.018-.259.016-.259.014-.258.012-.258.01-.258.008-.258.006-.257.004-.257.002h-.257s-.256-.003-.256-.003l-.256-.005-.256-.007h-33.465ZM903.554,273.388l.195.003.195.002h.195s.196.002.196.002h.196s.196-.001.196-.001l.197-.002.197-.003.198-.004.198-.004.198-.005.199-.006.199-.007.199-.008.2-.009.2-.01.201-.01.201-.011.201-.012.202-.013.202-.014.202-.015.203-.015.203-.016.204-.017.204-.018.204-.019.205-.02.205-.021.205-.021.206-.022.206-.023.207-.024.207-.025.207-.026.208-.026.208-.027.208-.028.209-.029.209-.03.21-.031.21-.032.21-.032.211-.033.211-.034.211-.035.212-.036.212-.037.212-.037.213-.038.213-.039.214-.04.214-.041.214-.042.215-.043.215-.043.215-.044.216-.045.216-.046.216-.047.217-.048.217-.048.218-.049.218-.05.218-.051.219-.052.219-.053.219-.054.22-.054.22-.055.22-.056.221-.057.221-.058.222-.059.222-.059.222-.06.223-.061.223-.062.223-.063.224-.064.224-.065.224-.065.225-.066.225-.067.225-.068.226-.069.226-.07.226-.07.227-.071.227-.072.227-.073.228-.074.228-.075.228-.076.229-.076.229-.077.229-.078.23-.079.23-.08.23-.081.231-.081.231-.082.231-.083.232-.084.232-.085.232-.086.232-.086.233-.087.233-.088.233-.089.234-.09.234-.091.234-.092.234-.092.235-.093.235-.094.235-.095.236-.096.236-.097.236-.097.236-.098.237-.099.237-.1.237-.101.238-.102.238-.102.238-.103.238-.104.239-.105.239-.106.239-.107.239-.107.239-.108.24-.109.24-.11.24-.111.24-.112.241-.112.241-.113.241-.114.241-.115.241-.116.242-.116.242-.117.242-.118.242-.119.242-.12.243-.121.243-.121.243-.122.243-.123.243-.124.243-.125.244-.125.244-.126.244-.127.244-.128.244-.129.244-.13.244-.13.245-.131.245-.132.245-.133.245-.134.245-.134.245-.135.245-.136.245-.137.245-.138.245-.138.246-.139.246-.14.246-.141.246-.142.246-.142.246-.143.246-.144.246-.145.246-.146.246-.146.246-.147.246-.148.246-.149.246-.149.246-.15.246-.151.246-.152.246-.153.246-.153.246-.154.246-.155.246-.156.246-.156.246-.157.246-.158.245-.159.245-.159.245-.16.245-.161.245-.162.245-.163.245-.163.245-.164.245-.165.245-.166.244-.166.244-.167.244-.168.244-.168.244-.169.244-.17.243-.171.243-.171.243-.172.243-.173.243-.174.242-.174.242-.175.242-.176.242-.177.242-.177.241-.178.241-.179.241-.179.241-.18.24-.181.24-.182.24-.182.239-.183.239-.184.239-.184.239-.185.238-.186.238-.186.238-.187.237-.188.237-.189.237-.189.236-.19.236-.191.235-.191.235-.192.235-.193.234-.193.234-.194.234-.195.233-.195.233-.196.232-.197.232-.197.231-.198.231-.199.231-.199.23-.2.23-.201.229-.201.229-.202.228-.203.228-.203.227-.204.227-.204.226-.205.226-.206.225-.206.225-.207.224-.208.224-.208.223-.209.223-.209.222-.21.222-.211.221-.211.22-.212.22-.213.219-.213.219-.214.218-.214.217-.215.217-.216.216-.216.216-.217.215-.217.214-.218.214-.218.213-.219.212-.22.212-.22.211-.221.211-.221.21-.222.209-.222.209-.223.208-.224.207-.224.207-.225.206-.225.205-.226.204-.226.204-.227.203-.227.202-.228.202-.228.201-.229.2-.229.199-.23.199-.23.198-.231.197-.232.196-.232.196-.233.195-.233.194-.234.193-.234.193-.235.192-.235.191-.236.19-.236.19-.236.189-.237.188-.237.187-.238.186-.238.186-.239.185-.239.184-.24.183-.24.182-.241.182-.241.181-.242.18-.242.179-.242.178-.243.177-.243.177-.244.176-.244.175-.245.174-.245.173-.245.172-.246.172-.246.171-.247.17-.247.169-.248.168-.248.167-.248.167-.249.166-.249.165-.25.164-.25.163-.25.162-.251.161-.251.161-.251.16-.252.159-.252.158-.252.157-.253.156-.253.155-.254.155-.254.154-.254.153-.255.152-.255.151-.255.15-.256.149-.256.149-.256.148-.257.147-.257.146-.257.145-.257.144-.258.143-.258.143-.258.142-.259.141-.259.14-.259.139-.26.138-.26.138-.26.137-.26.136-.261.135-.261.134-.261.133-.261.133-.262.132-.262.131-.262.13-.262.129-.263.128-.263.128-.263.127-.263.126-.264.125-.264.124-.264.123-.264.123-.264.122-.265.121-.265.12-.265.119-.265.119-.265.118-.266.117-.266.116-.266.115-.266.115-.266.114-.267.113-.267.112-.267.112-.267.111-.267.11-.267.109-.268.109-.268.108-.268.107-.268.106-.268.105-.268.105-.268.104-.269.103-.269.103-.269.102-.269.101-.269.1-.269.1-.269.099-.269.098-.269.097-.27.097-.27.096-.27.095-.27.095-.27.094-.27.093-.27.092-.27.092-.27.091-.27.09-.27.09-.271.089-.271.088-.271.088-.271.087-.271.086-.271.086-.271.085-.271.084-.271.084-.271.083-.271.082-.271.082-.271.081-.271.081-.271.08-.271.079-.271.157-.542.154-.542.152-.542.149-.542.147-.542.145-.542.142-.542.14-.542.138-.542.135-.542.133-.542.131-.542.129-.541.126-.541.124-.541.122-.541.12-.54.118-.54.116-.54.114-.54.112-.539.11-.539.108-.539.106-.538.104-.538.102-.537.1-.537.098-.537.096-.536.094-.536.092-.535.09-.535.088-.534.087-.534.085-.533.083-.533.081-.532.079-.532.077-.531.075-.531.074-.53.072-.53.07-.529.068-.529.066-.528.064-.527.062-.527.061-.526.059-.526.057-.525.055-.525.053-.524.051-.523.049-.523.047-.522.045-.522.044-.521.042-.52.04-.52.038-.519.036-.519.034-.518.032-.518.03-.517.028-.516.025-.516.023-.515.021-.515.019-.514.017-.514.015-.513.013-.513.011-.512.008-.511.006-.511.004-.51.002-.51v-.509s-.003-.509-.003-.509l-.005-.508-.007-.508-.01-.507-.012-.507-.015-.506-.017-.506-.019-.505-.011-.252-.011-.252-.012-.252-.012-.252-.013-.252-.014-.252-.014-.252-.015-.251-.016-.251-.016-.251-.017-.251-.017-.251-.018-.251-.019-.251-.019-.251-.02-.25-.021-.25-.021-.25-.022-.25-.023-.25-.023-.25-.024-.25-.025-.249-.025-.249-.026-.249-.027-.249-.027-.249-.028-.249-.029-.249-.029-.249-.03-.248-.031-.248-.031-.248-.032-.248-.033-.248-.033-.248-.034-.248-.035-.248-.036-.247-.036-.247-.037-.247-.038-.247-.038-.247-.039-.247-.04-.247-.041-.246-.041-.246-.042-.246-.043-.246-.043-.246-.044-.246-.045-.246-.046-.246-.046-.245-.047-.245-.048-.245-.048-.245-.049-.245-.05-.245-.051-.245-.051-.244-.052-.244-.053-.244-.054-.244-.054-.244-.055-.244-.056-.244-.056-.243-.057-.243-.058-.243-.059-.243-.059-.243-.06-.243-.061-.242-.062-.242-.062-.242-.063-.242-.064-.242-.065-.242-.065-.241-.066-.241-.067-.241-.068-.241-.068-.241-.069-.241-.07-.24-.071-.24-.071-.24-.072-.24-.073-.24-.074-.239-.074-.239-.075-.239-.076-.239-.077-.239-.077-.238-.078-.238-.079-.238-.08-.238-.08-.238-.081-.237-.082-.237-.083-.237-.083-.237-.084-.237-.085-.236-.086-.236-.086-.236-.087-.236-.088-.235-.089-.235-.089-.235-.09-.235-.091-.234-.092-.234-.092-.234-.093-.234-.094-.233-.095-.233-.095-.233-.096-.233-.097-.232-.098-.232-.098-.232-.099-.232-.1-.231-.101-.231-.101-.231-.102-.231-.103-.23-.104-.23-.104-.23-.105-.229-.106-.229-.106-.229-.107-.229-.108-.228-.109-.228-.109-.228-.11-.227-.111-.227-.112-.227-.112-.226-.113-.226-.114-.226-.114-.226-.115-.225-.116-.225-.117-.225-.117-.224-.118-.224-.119-.224-.119-.223-.12-.223-.121-.223-.122-.222-.122-.222-.123-.221-.124-.221-.124-.221-.125-.22-.126-.22-.127-.22-.127-.219-.128-.219-.129-.219-.129-.218-.13-.218-.131-.217-.131-.217-.132-.217-.133-.216-.133-.216-.134-.216-.135-.215-.135-.215-.136-.214-.137-.214-.138-.214-.138-.213-.139-.213-.14-.212-.14-.212-.141-.211-.142-.211-.142-.211-.143-.21-.144-.21-.144-.209-.145-.209-.146-.208-.146-.208-.147-.208-.148-.207-.148-.207-.149-.206-.15-.206-.15-.205-.151-.205-.151-.204-.152-.204-.153-.203-.153-.203-.154-.203-.155-.202-.155-.202-.156-.201-.157-.201-.157-.2-.158-.2-.159-.199-.159-.199-.16-.198-.16-.198-.161-.197-.162-.197-.162-.196-.163-.196-.164-.195-.164-.195-.165-.194-.165-.194-.166-.193-.167-.193-.167-.192-.168-.192-.168-.191-.169-.191-.17-.19-.17-.19-.171-.189-.172-.189-.172-.188-.173-.188-.173-.187-.174-.187-.175-.186-.175-.185-.176-.185-.176-.184-.177-.184-.178-.183-.178-.183-.179-.182-.179-.182-.18-.181-.181-.181-.181-.18-.182-.179-.182-.179-.183-.178-.184-.178-.184-.177-.185-.177-.185-.176-.186-.176-.186-.175-.187-.175-.188-.174-.188-.173-.189-.173-.189-.172-.19-.172-.191-.171-.191-.171-.192-.17-.192-.169-.193-.169-.193-.168-.194-.168-.195-.167-.195-.167-.196-.166-.196-.165-.197-.165-.197-.164-.198-.164-.199-.163-.199-.163-.2-.162-.2-.161-.201-.161-.201-.16-.202-.16-.203-.159-.203-.159-.204-.158-.204-.157-.205-.157-.205-.156-.206-.156-.206-.155-.207-.154-.208-.154-.208-.153-.209-.153-.209-.152-.21-.151-.21-.151-.211-.15-.211-.15-.212-.149-.213-.149-.213-.148-.214-.147-.214-.147-.215-.146-.215-.146-.216-.145-.216-.144-.217-.144-.218-.143-.218-.143-.219-.142-.219-.141-.22-.141-.22-.14-.221-.14-.221-.139-.222-.138-.222-.138-.223-.137-.224-.137-.224-.136-.225-.135-.225-.135-.226-.134-.226-.134-.227-.133-.227-.132-.228-.132-.228-.131-.229-.131-.23-.13-.23-.129-.231-.129-.231-.128-.232-.128-.232-.127-.233-.126-.233-.126-.234-.125-.234-.125-.235-.124-.236-.123-.236-.123-.237-.122-.237-.122-.238-.121-.238-.12-.239-.12-.239-.119-.24-.119-.24-.118-.241-.117-.241-.117-.242-.116-.243-.116-.243-.115-.244-.114-.244-.114-.245-.113-.245-.113-.246-.112-.246-.111-.247-.111-.247-.11-.248-.11-.248-.109-.249-.108-.25-.108-.25-.107-.251-.107-.251-.106-.252-.105-.252-.105-.253-.104-.253-.104-.254-.103-.254-.102-.255-.102-.255-.101-.256-.101-.257-.1-.257-.099-.258-.099-.258-.098-.259-.098-.259-.097-.26-.096-.26-.096-.261-.095-.261-.095-.262-.094h-109.522l-39.55,197.748h109.522ZM607.274,180.793l3.347,40.16,10.793-50.11-14.139,9.95ZM453.574,192.646l-70.913-45.024-14.065,12.227,44.147,104.003,40.831-71.205Z"/>
</svg>